<?xml version="1.0" encoding="UTF-8" standalone="no"?>
<!-- Created with Inkscape (http://www.inkscape.org/) -->

<svg
   width="48mm"
   height="48mm"
   viewBox="0 0 48 48"
   version="1.1"
   id="svg1"
   xmlns="http://www.w3.org/2000/svg"
   xmlns:svg="http://www.w3.org/2000/svg">
  <defs
     id="defs1" />
  <path
     id="path3"
     style="color:#000000;display:inline;fill:#18f2f9;fill-opacity:1;stroke-linecap:round;-inkscape-stroke:none"
     d="M 11.599382,0.82083358 A 1.965905,1.965905 0 0 0 9.6346435,2.7876385 V 5.4546586 C 10.851382,4.6594175 12.169982,4.0098565 13.566188,3.5286785 v -0.74104 A 1.965905,1.965905 0 0 0 11.599382,0.82083358 Z m 4.597656,8.15764112 c -2.702911,0.73356 -5.009072,2.3943953 -6.5623945,4.6265923 v 13.520624 c 1.5533075,2.232189 3.8594275,3.893566 6.5623945,4.627108 z M 9.6346435,35.276617 v 9.68054 a 1.965905,1.965905 0 0 0 1.9647385,1.96526 1.965905,1.965905 0 0 0 1.966806,-1.96526 v -7.75456 c -1.396227,-0.48115 -2.71479,-1.13078 -3.9315445,-1.92598 z" />
  <path
     id="path2"
     style="color:#000000;display:inline;fill:#000000;fill-opacity:1;stroke-linecap:round;-inkscape-stroke:none"
     d="m 19.329665,3.5607175 c -9.257138,0 -16.8046646,7.5475265 -16.8046646,16.8046625 0,9.257133 7.5475266,16.804657 16.8046646,16.804657 4.120054,0 7.899079,-1.49745 10.826729,-3.972882 l 13.013159,13.104112 a 1.92636,1.92636 0 0 0 2.722832,0.01 1.92636,1.92636 0 0 0 0.0098,-2.72283 L 32.800677,30.391642 c 2.091435,-2.801904 3.332097,-6.273501 3.332097,-10.026262 0,-9.257136 -7.545976,-16.8046625 -16.803109,-16.8046625 z m 0,4.0002732 c 7.095377,0 12.802836,5.7090113 12.802836,12.8043893 0,7.095377 -5.707459,12.804903 -12.802836,12.804903 -7.09538,0 -12.8043916,-5.709526 -12.8043916,-12.804903 0,-7.095378 5.7090116,-12.8043893 12.8043916,-12.8043893 z" />
</svg>
